<svg height='300px' width='300px'  xmlns="http://www.w3.org/2000/svg" viewBox="0 0 32 32" fill="none" x="0px" y="0px"><path fill-rule="evenodd" clip-rule="evenodd" d="M13 16C13 14.3431 14.3431 13 16 13L25 13C26.6569 13 28 14.3431 28 16V25C28 26.6569 26.6569 28 25 28H16C14.3431 28 13 26.6569 13 25L13 16ZM16 15C15.4477 15 15 15.4477 15 16L15 25C15 25.5523 15.4477 26 16 26H25C25.5523 26 26 25.5523 26 25V16C26 15.4477 25.5523 15 25 15L16 15Z" fill="black"></path><path fill-rule="evenodd" clip-rule="evenodd" d="M0 5C0 2.23858 2.23858 0 5 0H27C29.7614 0 32 2.23857 32 5L32 27C32 29.7614 29.7614 32 27 32H5C2.23858 32 0 29.7614 0 27V5ZM5 2C3.34315 2 2 3.34315 2 5L2 27C2 28.6569 3.34315 30 5 30L27 30C28.6569 30 30 28.6569 30 27L30 5C30 3.34314 28.6569 2 27 2L5 2Z" fill="black"></path></svg>